<svg width="24" height="23" viewBox="0 0 24 23" fill="none" xmlns="http://www.w3.org/2000/svg">
<path fill-rule="evenodd" clip-rule="evenodd" d="M3.90458 8.52344C4.32542 8.52344 4.66658 8.8646 4.66658 9.28544V20.5249H8.47658V14.8099C8.47658 14.3047 8.67728 13.8202 9.03454 13.4629C9.3918 13.1056 9.87634 12.9049 10.3816 12.9049H14.1916C14.6968 12.9049 15.1814 13.1056 15.5386 13.4629C15.8959 13.8202 16.0966 14.3047 16.0966 14.8099V20.5249H19.9066V9.28544C19.9066 8.8646 20.2477 8.52344 20.6686 8.52344C21.0894 8.52344 21.4306 8.8646 21.4306 9.28544V20.5249C21.4306 20.9291 21.27 21.3168 20.9842 21.6026C20.6984 21.8884 20.3108 22.0489 19.9066 22.0489H15.3346C14.9137 22.0489 14.5726 21.7078 14.5726 21.2869V14.8099C14.5726 14.7089 14.5324 14.612 14.461 14.5405C14.3895 14.4691 14.2926 14.4289 14.1916 14.4289H10.3816C10.2805 14.4289 10.1836 14.4691 10.1122 14.5405C10.0407 14.612 10.0006 14.7089 10.0006 14.8099V21.2869C10.0006 21.7078 9.65942 22.0489 9.23858 22.0489H4.66658C4.26239 22.0489 3.87475 21.8884 3.58895 21.6026C3.30314 21.3168 3.14258 20.9291 3.14258 20.5249V9.28544C3.14258 8.8646 3.48374 8.52344 3.90458 8.52344Z" fill="#0B74B9"/>
<path fill-rule="evenodd" clip-rule="evenodd" d="M13.3434 1.1255L16.0974 3.76184V2.23752C16.0974 1.81668 16.4386 1.47552 16.8594 1.47552H19.1454C19.5663 1.47552 19.9074 1.81668 19.9074 2.23752V7.40897L23.4823 10.8311C23.7864 11.1221 23.7969 11.6044 23.5059 11.9085C23.2149 12.2125 22.7325 12.223 22.4285 11.932L12.3027 2.23902C12.298 2.23861 12.293 2.23837 12.2877 2.23836C12.2822 2.23835 12.2769 2.23859 12.2722 2.23901L2.14634 11.932C1.84234 12.223 1.35998 12.2125 1.06897 11.9085C0.77796 11.6044 0.788495 11.1221 1.0925 10.8311L11.2322 1.12487C11.543 0.809741 11.9666 0.713778 12.2904 0.714358C12.6129 0.714936 13.035 0.811687 13.3434 1.1255ZM18.3834 5.95012V2.99952H17.6214V5.22069L18.3834 5.95012Z" fill="#0B74B9"/>
</svg>
