<svg width="200" height="26" viewBox="0 0 200 26" fill="none" xmlns="http://www.w3.org/2000/svg">
<path d="M20.6628 16.4984C20.6868 18.161 22.2031 18.9799 23.5749 19.2528C24.9226 19.5258 26.7999 19.5258 28.1236 19.0791C29.3029 18.6573 30.1934 17.8632 30.1934 16.5232H30.6025C30.6025 18.0121 29.6398 18.9799 28.2439 19.4514C26.9202 19.898 24.8986 19.9228 23.5268 19.6499C21.9624 19.3273 20.3258 18.3595 20.3018 16.4984V16.2503L20.3258 4.43848V4.21515C20.3499 2.32923 21.9865 1.36146 23.5508 1.03887C24.9227 0.765906 26.9443 0.790721 28.268 1.2622C29.6639 1.78331 30.6266 2.72627 30.6266 4.23996H30.2174C30.2174 2.87515 29.3269 2.08108 28.1717 1.68405C26.848 1.23738 24.9708 1.18775 23.623 1.46072C22.2512 1.73368 20.735 2.57738 20.6868 4.23996L20.6628 16.4984Z" fill="#4F4F4F"/>
<path d="M32.9846 8.06327C35.1988 5.38328 41.6247 6.02847 41.6247 9.974C41.6247 12.2073 41.6247 14.4655 41.6247 16.7236V17.468C41.6247 18.411 42.0098 19.2299 42.9966 19.2299V19.6765C42.0339 19.6765 41.4563 19.081 41.2878 18.1132C40.4936 19.478 38.5682 19.8254 37.0038 19.8254C36.0171 19.8254 35.0544 19.6021 34.2602 19.1802C31.9016 17.9147 31.7331 14.2173 33.9714 12.8029C34.7415 12.3314 35.7523 12.1081 36.9076 12.1081H41.2156V9.94918C41.2156 6.4255 35.3432 5.97883 33.3456 8.2866L32.9846 8.06327ZM36.9076 12.5299C35.7042 12.5299 34.8137 12.8029 34.1639 13.1999C32.2385 14.4655 32.3829 17.7162 34.4286 18.808C35.1747 19.2051 36.0893 19.4284 37.0038 19.4284C38.7607 19.4284 41.2156 18.9569 41.2156 16.7236C41.2156 15.334 41.2156 13.9195 41.2156 12.5299H36.9076Z" fill="#4F4F4F"/>
<path d="M44.8018 25.3341L44.8258 9.82495V6.57422H45.259V8.41051C45.7644 7.46755 46.6549 6.97126 47.6176 6.6983C48.821 6.35089 50.1687 6.35089 51.348 6.6983C52.8161 7.09533 54.1398 8.08792 54.1398 9.82495V16.4505C54.1398 18.5349 52.2626 19.5027 50.5538 19.7508C50.0003 19.8253 49.4467 19.8501 48.8691 19.8004C47.4732 19.7012 45.9088 19.1304 45.235 17.7656V25.3093L44.8018 25.3341ZM51.2518 7.12015C50.1447 6.79756 48.845 6.82237 47.7139 7.12015C46.4624 7.49237 45.259 8.33607 45.235 9.84976V16.4753C45.235 17.8401 46.2458 18.6838 47.401 19.1056C47.8824 19.3041 48.3878 19.3786 48.8932 19.4282C49.4227 19.4779 49.9521 19.453 50.4816 19.3786C51.9256 19.1304 53.6826 18.3116 53.6826 16.5001C53.6826 14.4157 53.6826 11.9838 53.6826 9.87457C53.7307 8.36088 52.5273 7.49237 51.2518 7.12015Z" fill="#4F4F4F"/>
<path d="M57.5103 6.44913L57.4863 19.7002H57.0771L57.1012 6.44913H57.5103ZM57.5103 0.965088V3.47137H57.1012V0.965088H57.5103Z" fill="#4F4F4F"/>
<path d="M61.8666 0.965088H62.2998V6.62284H65.4766V7.04468H62.2998V16.3254C62.2998 18.5091 63.8641 19.3031 65.621 19.3528V19.7746C63.6235 19.725 61.8666 18.7572 61.8666 16.3254V7.04468H59.3154V6.62284H61.8666V0.965088Z" fill="#4F4F4F"/>
<path d="M67.3538 8.11112C69.5679 5.43114 75.9939 6.07632 75.9939 10.0219C75.9939 12.2552 75.9939 14.5133 75.9939 16.7714V17.5159C75.9939 18.4588 76.379 19.2777 77.3657 19.2777V19.7244C76.403 19.7244 75.8254 19.1288 75.657 18.1611C74.8627 19.5259 72.9374 19.8733 71.373 19.8733C70.3862 19.8733 69.4235 19.65 68.6293 19.2281C66.2707 17.9626 66.1023 14.2652 68.3405 12.8507C69.1107 12.3792 70.1215 12.1559 71.2767 12.1559H75.5848V9.99704C75.5848 6.47335 69.7123 6.02669 67.7148 8.33445L67.3538 8.11112ZM71.2767 12.5778C70.0734 12.5778 69.1829 12.8507 68.533 13.2478C66.6077 14.5133 66.7521 17.764 68.7978 18.8559C69.5439 19.2529 70.4584 19.4762 71.373 19.4762C73.1299 19.4762 75.5848 19.0048 75.5848 16.7714C75.5848 15.3818 75.5848 13.9674 75.5848 12.5778H71.2767Z" fill="#4F4F4F"/>
<path d="M82.4201 19.8002C80.3022 19.8994 79.3154 19.0557 79.3154 16.6735L79.3395 1.04028H79.7246L79.7005 16.6735C79.7005 18.882 80.5669 19.4528 82.4201 19.4031V19.8002Z" fill="#4F4F4F"/>
<path d="M89.231 12.5549V19.7759H87.9795C87.9795 13.5971 88.0036 7.24453 88.0036 1.06567H92.7688C94.8146 1.06567 97.4619 2.13271 97.4619 4.6638V8.95674C97.4619 11.3638 95.1034 12.5549 92.7207 12.5549H89.231ZM92.7448 11.2149C94.4776 11.2149 96.2345 10.4704 96.2345 8.95674V4.6638C96.2345 2.95159 94.0685 2.40567 92.7929 2.38085H89.255V11.2149H92.7448Z" fill="#4F4F4F"/>
<path d="M102.78 19.8746C100.686 19.9987 99.6514 19.3039 99.6514 16.9217L99.6754 1.04028H100.951L100.927 16.9465C100.927 18.3361 101.456 18.6587 102.78 18.6587V19.8746Z" fill="#4F4F4F"/>
<path d="M112.166 10.2219C112.166 9.82482 112.093 9.4526 111.853 9.13001C111.42 8.48483 110.625 8.08779 109.711 7.88928C109.037 7.7652 108.411 7.79002 107.713 7.88928C106.799 8.03816 105.908 8.46001 105.379 9.2789L104.296 8.55927C105.788 6.02818 111.227 5.9041 112.912 8.33594C113.321 8.95631 113.441 9.6263 113.441 10.3459V17.3685C113.441 18.3611 114.043 18.634 114.693 18.634V19.8251C113.634 19.8996 112.791 19.577 112.406 18.7581C111.323 19.8748 109.951 20.1477 108.7 20.1477C108.098 20.1477 107.448 20.0485 106.847 19.8748C103.381 18.8822 102.996 14.49 105.595 12.7033C107.184 11.5867 109.687 11.4378 112.19 11.9341L112.166 10.2219ZM112.166 13.15C110.288 12.6289 107.834 12.5792 106.365 13.6463C104.584 14.9615 104.729 17.84 107.184 18.5596C107.641 18.6837 108.146 18.7581 108.676 18.7581C110 18.7581 112.166 18.237 112.166 16.5248V13.15Z" fill="#4F4F4F"/>
<path d="M119.025 1.04028V6.67321H122.058V7.86432C121.047 7.86432 120.06 7.86432 119.025 7.88913V16.1028C119.025 18.3361 120.59 18.5594 122.274 18.6091V19.8498C119.964 19.9739 117.75 19.1054 117.75 16.1276V7.86432H115.56V6.67321H117.75V1.04028H119.025Z" fill="#4F4F4F"/>
<path d="M125.138 19.7971L125.162 7.91089H122.972V6.67016H125.162V4.7098C125.162 1.70723 127.376 0.83871 129.71 0.962783V2.20352C128.026 2.25315 126.461 2.47648 126.461 4.7098V6.67016C127.448 6.67016 128.459 6.67016 129.47 6.67016V7.91089H126.461L126.437 19.7971H125.138Z" fill="#4F4F4F"/>
<path d="M140.613 16.3499C140.613 18.0125 139.506 19.0795 138.038 19.6006C136.955 19.9728 135.775 20.0225 134.644 19.8488C132.743 19.5014 131.106 18.3599 131.106 16.3499V10.1462C131.106 8.38438 132.382 7.26772 133.995 6.82106C134.596 6.62254 135.222 6.5481 135.848 6.5481C136.473 6.5481 137.123 6.62254 137.701 6.82106C139.337 7.26772 140.589 8.4092 140.589 10.171L140.613 16.3499ZM139.337 16.3499V10.1462C139.337 9.10401 138.471 8.4092 137.388 8.08661C136.907 7.96253 136.401 7.86327 135.872 7.86327C135.342 7.86327 134.837 7.93772 134.356 8.08661C133.272 8.4092 132.406 9.07919 132.406 10.1462V16.3499C132.406 17.541 133.537 18.3351 134.861 18.5832C135.8 18.7569 136.762 18.6825 137.653 18.3847C138.615 18.0125 139.337 17.3177 139.337 16.3499Z" fill="#4F4F4F"/>
<path d="M143.093 19.8238V13.8683V10.4439V6.69686H144.344V8.13611C145.427 6.49834 147.858 6.22538 149.639 6.69686L149.422 7.96241C147.738 7.36686 144.392 8.285 144.392 10.4191V19.8238H143.093Z" fill="#4F4F4F"/>
<path d="M160.036 19.8484C159.603 19.8484 159.194 19.8484 158.76 19.8484V10.1706C158.664 8.50805 157.196 7.7388 155.704 7.76361C154.067 7.81324 152.455 8.85546 152.455 10.518V19.8484H151.155L151.179 6.7214H152.479V7.98694C153.418 6.8951 154.741 6.57251 155.945 6.57251C157.485 6.57251 158.977 7.21769 159.507 8.48324C160.205 7.21769 161.793 6.64695 163.237 6.64695C165.451 6.67177 167.665 7.86287 167.641 10.3692V19.8732H166.342V10.3443C166.342 8.63213 164.777 7.88769 163.189 7.88769C161.673 7.88769 160.132 8.60731 160.036 10.2203V19.8484Z" fill="#4F4F4F"/>
<path d="M171.105 16.5964C172.02 18.9042 174.86 18.9042 176.424 18.4575C177.531 18.1349 178.398 17.4153 178.398 16.3483C178.422 14.512 176.641 14.2639 174.86 14.0157C172.525 13.6931 170.215 13.3953 170.239 10.3183C170.263 8.48204 171.539 7.31575 173.175 6.81945C175.173 6.2239 178.446 6.47204 179.409 8.755L178.398 9.44981C177.459 7.76241 175.125 7.66315 173.512 8.13463C172.405 8.48203 171.539 9.20166 171.539 10.3183C171.515 12.1546 173.296 12.4028 175.077 12.6509C177.387 12.9735 179.722 13.2961 179.698 16.3483C179.673 18.1598 178.398 19.2764 176.761 19.7727C174.547 20.4427 170.889 19.9712 170.022 17.3657L171.105 16.5964Z" fill="#4F4F4F"/>
</svg>
