<svg width="26" height="28" viewBox="0 0 26 28" fill="none" xmlns="http://www.w3.org/2000/svg">
<path d="M13.1815 0.999987C5.87023 0.901237 -0.0985186 6.86999 0.000231381 14.1812C0.0977314 21.1931 5.80711 26.9025 12.819 27C20.1315 27.1 26.099 21.1312 25.999 13.82C25.9027 6.80686 20.1934 1.09749 13.1815 0.999987ZM21.0827 21.4531C21.0578 21.48 21.0273 21.5012 20.9934 21.515C20.9594 21.5288 20.9228 21.5349 20.8862 21.533C20.8495 21.5311 20.8138 21.5212 20.7814 21.5039C20.7491 21.4867 20.7209 21.4625 20.699 21.4331C20.1399 20.7017 19.4553 20.0755 18.6771 19.5837C17.0859 18.5625 15.0696 18 13.0002 18C10.9309 18 8.91461 18.5625 7.32336 19.5837C6.54515 20.0753 5.86054 20.7013 5.30148 21.4325C5.27952 21.4619 5.25136 21.486 5.21901 21.5033C5.18667 21.5206 5.15091 21.5305 5.11429 21.5324C5.07767 21.5343 5.04108 21.5282 5.00711 21.5143C4.97314 21.5005 4.94263 21.4794 4.91773 21.4525C3.08378 19.4727 2.04492 16.8858 2.00023 14.1875C1.89836 8.10561 6.88898 3.01499 12.9734 2.99999C19.0577 2.98499 24.0002 7.92561 24.0002 14C24.0023 16.7634 22.9602 19.4255 21.0827 21.4531Z" fill="#0B74B9"/>
<path d="M13.0003 7C11.7678 7 10.6534 7.46188 9.86152 8.30125C9.06965 9.14063 8.67402 10.3012 8.7634 11.5469C8.94465 14 10.8453 16 13.0003 16C15.1553 16 17.0521 14 17.2371 11.5475C17.3296 10.3137 16.9371 9.16375 16.1321 8.30875C15.3371 7.465 14.2246 7 13.0003 7Z" fill="#0B74B9"/>
</svg>
